<?xml version="1.0" encoding="UTF-8" standalone="no"?>
<!-- Created with Inkscape (http://www.inkscape.org/) -->

<svg
   xmlns:dc="http://purl.org/dc/elements/1.1/"
   xmlns:cc="http://creativecommons.org/ns#"
   xmlns:rdf="http://www.w3.org/1999/02/22-rdf-syntax-ns#"
   xmlns:svg="http://www.w3.org/2000/svg"
   xmlns="http://www.w3.org/2000/svg"
   xmlns:xlink="http://www.w3.org/1999/xlink"
   xmlns:sodipodi="http://sodipodi.sourceforge.net/DTD/sodipodi-0.dtd"
   xmlns:inkscape="http://www.inkscape.org/namespaces/inkscape"
   width="300"
   height="100"
   viewBox="0 0 300 100"
   id="svg2"
   version="1.1"
   inkscape:version="0.91 r13725"
   sodipodi:docname="Nathan.svg">
  <defs
     id="defs4">
    <pattern
       inkscape:collect="always"
       xlink:href="#pattern4798"
       id="pattern4932"
       patternTransform="matrix(0.97538174,0,0,0.9753817,15.456391,1021.664)" />
    <pattern
       patternTransform="translate(-2.6046497e-6,-3.9140625e-5)"
       id="pattern5678"
       xlink:href="#pattern5582"
       inkscape:collect="always" />
    <pattern
       patternUnits="userSpaceOnUse"
       width="300.68216"
       height="101.27253"
       patternTransform="translate(-0.34795696,951.78027)"
       id="pattern5582">
      <rect
         id="rect4827"
         y="0"
         x="0"
         height="101.27253"
         width="300.68216"
         style="fill:url(#pattern5585);stroke:none" />
    </pattern>
    <pattern
       inkscape:collect="always"
       xlink:href="#pattern4798"
       id="pattern5585"
       patternTransform="translate(-1.4567108e-8,-3.4375e-6)" />
    <pattern
       patternUnits="userSpaceOnUse"
       width="300.68217"
       height="101.27253"
       patternTransform="translate(-0.34795697,951.78027)"
       id="pattern4798">
      <path
         inkscape:connector-curvature="0"
         id="path4689"
         d="M 0.34795697,70.806032 31.404521,100.90203"
         style="fill:none;fill-rule:evenodd;stroke:#000000;stroke-width:1px;stroke-linecap:butt;stroke-linejoin:miter;stroke-opacity:1" />
      <path
         inkscape:connector-curvature="0"
         id="path4691"
         d="M 0.66812773,54.157132 51.575278,100.58193"
         style="fill:none;fill-rule:evenodd;stroke:#000000;stroke-width:1px;stroke-linecap:butt;stroke-linejoin:miter;stroke-opacity:1" />
      <path
         inkscape:connector-curvature="0"
         id="path4693"
         d="M 0.66812773,35.907402 72.386377,100.90203"
         style="fill:none;fill-rule:evenodd;stroke:#000000;stroke-width:1px;stroke-linecap:butt;stroke-linejoin:miter;stroke-opacity:1" />
      <path
         inkscape:connector-curvature="0"
         id="path4695"
         d="M 0.98829849,15.096302 97.679867,100.58193"
         style="fill:none;fill-rule:evenodd;stroke:#000000;stroke-width:1px;stroke-linecap:butt;stroke-linejoin:miter;stroke-opacity:1" />
      <path
         inkscape:connector-curvature="0"
         id="path4697"
         d="M 17.317007,1.0087817 127.13558,100.90203"
         style="fill:none;fill-rule:evenodd;stroke:#000000;stroke-width:1px;stroke-linecap:butt;stroke-linejoin:miter;stroke-opacity:1" />
      <path
         inkscape:connector-curvature="0"
         id="path4699"
         d="M 55.737498,0.68861173 164.27539,100.90203"
         style="fill:none;fill-rule:evenodd;stroke:#000000;stroke-width:1px;stroke-linecap:butt;stroke-linejoin:miter;stroke-opacity:1" />
      <path
         inkscape:connector-curvature="0"
         id="path4701"
         d="M 97.679867,1.3289617 203.33622,100.58193"
         style="fill:none;fill-rule:evenodd;stroke:#000000;stroke-width:1px;stroke-linecap:butt;stroke-linejoin:miter;stroke-opacity:1" />
      <path
         inkscape:connector-curvature="0"
         id="path4703"
         d="M 145.38531,1.0087817 244.95842,100.26173"
         style="fill:none;fill-rule:evenodd;stroke:#000000;stroke-width:1px;stroke-linecap:butt;stroke-linejoin:miter;stroke-opacity:1" />
      <path
         inkscape:connector-curvature="0"
         id="path4705"
         d="M 202.37571,0.68861173 300.34796,88.735532"
         style="fill:none;fill-rule:evenodd;stroke:#000000;stroke-width:1px;stroke-linecap:butt;stroke-linejoin:miter;stroke-opacity:1" />
      <path
         inkscape:connector-curvature="0"
         id="path4707"
         d="M 179.64358,0.36844173 288.18147,99.941532"
         style="fill:none;fill-rule:evenodd;stroke:#000000;stroke-width:1px;stroke-linecap:butt;stroke-linejoin:miter;stroke-opacity:1" />
      <path
         inkscape:connector-curvature="0"
         id="path4709"
         d="M 242.71722,1.0087817 300.34796,49.674732"
         style="fill:none;fill-rule:evenodd;stroke:#000000;stroke-width:1px;stroke-linecap:butt;stroke-linejoin:miter;stroke-opacity:1" />
      <path
         inkscape:connector-curvature="0"
         id="path4711"
         d="M 276.01498,1.0087817 300.02779,20.539202"
         style="fill:none;fill-rule:evenodd;stroke:#000000;stroke-width:1px;stroke-linecap:butt;stroke-linejoin:miter;stroke-opacity:1" />
      <path
         inkscape:connector-curvature="0"
         id="path4713"
         d="m 1.9488108,2.6096417 295.5176092,0.96051 0.32017,94.7705803 -294.8772669,0 z"
         style="fill:none;fill-rule:evenodd;stroke:#d44343;stroke-width:1px;stroke-linecap:butt;stroke-linejoin:miter;stroke-opacity:1" />
      <path
         inkscape:connector-curvature="0"
         id="path4767"
         d="m 3.5161915,89.786801 c -8.008e-4,-4.358324 -0.095753,-9.58111 -0.2110041,-11.60619 l -0.2095481,-3.681963 4.7734374,4.549216 c 2.6253903,2.502068 8.0151663,7.717418 11.9772793,11.589665 l 7.203842,7.04045 -11.766275,0.01652 -11.7662755,0.01653 -0.00146,-7.924227 z"
         style="opacity:1;fill:#64a6a2;fill-opacity:1;stroke:#64a6a2;stroke-width:0.32017076;stroke-miterlimit:3.70000005;stroke-dasharray:none;stroke-opacity:1" />
      <path
         inkscape:connector-curvature="0"
         id="path4771"
         d="M 16.08435,85.155588 3.1974767,72.633232 l 0,-7.699867 0,-7.699867 1.5208111,1.466638 c 1.2244761,1.180859 12.1451782,11.137045 42.4866592,38.734238 0.171535,0.15602 -3.737529,0.26944 -8.964781,0.26011 L 28.971223,97.677944 16.08435,85.155588 Z"
         style="opacity:1;fill:#dede3b;fill-opacity:1;stroke:#64a6a2;stroke-width:0.32017076;stroke-miterlimit:3.70000005;stroke-dasharray:none;stroke-opacity:1" />
      <path
         inkscape:connector-curvature="0"
         id="path4773"
         d="M 26.392706,76.711146 3.3575621,55.711263 3.1165995,50.05693 C 2.9840701,46.947047 2.9120317,43.170148 2.9565142,41.663823 l 0.080877,-2.738773 32.4252998,29.392989 32.425303,29.392989 -9.230071,0 -9.230072,0 -23.035145,-20.999882 z"
         style="opacity:1;fill:#726cd6;fill-opacity:1;stroke:#64a6a2;stroke-width:0.32017076;stroke-miterlimit:3.70000005;stroke-dasharray:none;stroke-opacity:1" />
      <path
         inkscape:connector-curvature="0"
         id="path4775"
         d="M 36.373683,67.374848 2.8869596,37.038669 l -0.00483,-9.750143 -0.00483,-9.750144 1.2006403,1.142537 c 0.6603522,0.628396 20.5789757,18.251904 44.2636077,39.163352 23.684631,20.91145 43.492428,38.436154 44.017322,38.943787 l 0.954355,0.92297 -11.726411,0 -11.72641,0 -33.486727,-30.33618 z"
         style="opacity:1;fill:#6cc5d6;fill-opacity:1;stroke:#64a6a2;stroke-width:0.32017076;stroke-miterlimit:3.70000005;stroke-dasharray:none;stroke-opacity:1" />
      <path
         inkscape:connector-curvature="0"
         id="path4777"
         d="M 49.088653,56.713351 2.7172206,15.715673 2.6304095,9.4881632 2.5435984,3.2606537 l 8.1418256,0 8.141825,0 43.012223,39.1194083 c 23.65672,21.515673 47.011698,42.767007 51.899948,47.225186 l 8.88773,8.10578 -13.58353,0 -13.583535,0 -46.371432,-40.997677 z"
         style="opacity:1;fill:#c0443c;fill-opacity:1;stroke:#64a6a2;stroke-width:0.32017076;stroke-miterlimit:3.70000005;stroke-dasharray:none;stroke-opacity:1" />
      <path
         inkscape:connector-curvature="0"
         id="path4779"
         d="m 72.704887,50.485841 -51.9197,-47.2251873 18.384935,0 18.384934,0 50.862834,46.9394503 c 27.97456,25.816697 50.99971,47.068031 51.167,47.225187 0.17857,0.167757 -6.97601,0.285737 -17.32807,0.285737 l -17.63223,0 -51.919703,-47.225187 z"
         style="opacity:1;fill:#3ea938;fill-opacity:1;stroke:#64a6a2;stroke-width:0.32017076;stroke-miterlimit:3.70000005;stroke-dasharray:none;stroke-opacity:1" />
      <path
         inkscape:connector-curvature="0"
         id="path4781"
         d="M 112.52131,52.224121 C 85.410807,27.206324 62.437071,5.9373521 61.468555,4.9597401 60.006088,3.4835389 59.843285,3.2153 60.508042,3.3771723 60.948277,3.484372 69.815658,3.5740481 80.213334,3.5764526 l 18.904865,0.00437 49.131421,46.1324734 c 27.02229,25.37286 49.56089,46.552155 50.08578,47.065101 l 0.95436,0.932629 -18.73833,0 -18.73832,0 -49.2918,-45.486907 z"
         style="opacity:1;fill:#a95b38;fill-opacity:1;stroke:#64a6a2;stroke-width:0.32017076;stroke-miterlimit:3.70000005;stroke-dasharray:none;stroke-opacity:1" />
      <path
         inkscape:connector-curvature="0"
         id="path4783"
         d="M 153.83782,53.162068 C 127.77592,28.668161 105.23255,7.4921473 103.74144,6.1042586 l -2.7111,-2.5234341 23.04195,0.014416 23.04195,0.014416 47.16939,47.0506865 47.16939,47.050685 -20.11496,-0.0073 -20.11497,-0.0073 -47.38527,-44.534374 z"
         style="opacity:1;fill:#a25cd0;fill-opacity:1;stroke:#64a6a2;stroke-width:0.32017076;stroke-miterlimit:3.70000005;stroke-dasharray:none;stroke-opacity:1" />
      <path
         inkscape:connector-curvature="0"
         id="path4785"
         d="m 196.21775,50.725969 -47.08699,-46.9850592 4.91489,-0.077154 c 2.7032,-0.042435 10.2578,0.029604 16.78801,0.1600854 l 11.87311,0.2372394 49.75976,45.6386004 c 27.36787,25.10123 50.33607,46.168572 51.04045,46.816312 l 1.28068,1.177707 -20.74146,0.0087 -20.74146,0.0087 -47.08699,-46.985059 z"
         style="opacity:1;fill:#5cd06c;fill-opacity:1;stroke:#64a6a2;stroke-width:0.32017076;stroke-miterlimit:3.70000005;stroke-dasharray:none;stroke-opacity:1" />
      <path
         inkscape:connector-curvature="0"
         id="path4787"
         d="M 236.44188,51.58547 C 208.79513,26.222597 185.81815,5.117869 185.38192,4.6860751 l -0.79315,-0.7850799 10.23818,0.013951 10.23819,0.013951 45.94451,41.3120088 45.9445,41.312011 0.0874,5.579055 0.0874,5.579056 -5.21016,-0.0056 -5.21016,-0.0056 -50.26681,-46.114316 z"
         style="opacity:1;fill:#d05cbe;fill-opacity:1;stroke:#64a6a2;stroke-width:0.32017076;stroke-miterlimit:3.70000005;stroke-dasharray:none;stroke-opacity:1" />
      <path
         inkscape:connector-curvature="0"
         id="path4789"
         d="M 252.22912,44.622707 C 227.63035,22.489907 207.39956,4.2731937 207.27181,4.1411233 207.14406,4.0090529 215.60982,3.9009952 226.08462,3.9009952 l 19.0451,0 25.99226,21.9492858 25.99226,21.949285 0,18.552314 c 0,10.203775 -0.036,18.543311 -0.08,18.5323 -0.044,-0.01101 -20.2063,-18.128673 -44.80507,-40.261473 z"
         style="opacity:1;fill:#715cd0;fill-opacity:1;stroke:#64a6a2;stroke-width:0.32017076;stroke-miterlimit:3.70000005;stroke-dasharray:none;stroke-opacity:1" />
      <path
         inkscape:connector-curvature="0"
         id="path4791"
         d="M 272.17574,24.99744 C 258.58719,13.521958 247.52051,4.0817008 247.58312,4.0190899 c 0.0626,-0.062611 7.17441,-0.019551 15.80399,0.095688 l 15.69015,0.2095263 8.77836,7.1505968 8.77836,7.150596 0.19708,13.528891 c 0.1084,7.440889 0.16425,13.569092 0.12411,13.618229 -0.0401,0.04913 -11.19088,-9.299696 -24.77943,-20.775177 z"
         style="opacity:1;fill:#d0925c;fill-opacity:1;stroke:#64a6a2;stroke-width:0.32017076;stroke-miterlimit:3.70000005;stroke-dasharray:none;stroke-opacity:1" />
      <path
         inkscape:connector-curvature="0"
         id="path4793"
         d="m 288.93578,10.646784 -7.6982,-6.2655326 7.66572,-0.085843 c 4.21614,-0.047214 7.71947,-0.032092 7.78516,0.033604 0.0657,0.065696 0.0803,2.9238149 0.0325,6.3513756 l -0.087,6.231929 -7.6982,-6.265533 z"
         style="opacity:1;fill:#5cd0bf;fill-opacity:1;stroke:#64a6a2;stroke-width:0.32017076;stroke-miterlimit:3.70000005;stroke-dasharray:none;stroke-opacity:1" />
      <path
         inkscape:connector-curvature="0"
         id="path4795"
         d="M 153.35757,52.36151 C 127.03152,27.609205 104.65538,6.5796451 103.63281,5.6291564 l -1.85924,-1.7281612 22.67033,0.00734 22.67034,0.00734 46.7923,46.7375948 46.7923,46.737593 -19.73787,-0.01258 -19.73788,-0.01258 -47.86552,-45.004194 z"
         style="opacity:1;fill:#d29e34;fill-opacity:1;stroke:#64a6a2;stroke-width:0.32017076;stroke-miterlimit:3.70000005;stroke-dasharray:none;stroke-opacity:1" />
    </pattern>
    <pattern
       patternUnits="userSpaceOnUse"
       width="300.68216"
       height="101.27253"
       patternTransform="translate(-0.83288527,950.57837)"
       id="pattern4927">
      <rect
         id="rect5594"
         y="0"
         x="0"
         height="101.27253"
         width="300.68216"
         style="fill:url(#pattern5678);fill-opacity:1;stroke:none" />
    </pattern>
  </defs>
  <sodipodi:namedview
     id="base"
     pagecolor="#ffffff"
     bordercolor="#666666"
     borderopacity="1.0"
     inkscape:pageopacity="0.0"
     inkscape:pageshadow="2"
     inkscape:zoom="3.05"
     inkscape:cx="150"
     inkscape:cy="102.45902"
     inkscape:document-units="px"
     inkscape:current-layer="layer2"
     showgrid="false"
     units="px"
     inkscape:window-width="1536"
     inkscape:window-height="801"
     inkscape:window-x="-8"
     inkscape:window-y="-8"
     inkscape:window-maximized="1"
     borderlayer="true" />
  <metadata
     id="metadata7">
    <rdf:RDF>
      <cc:Work
         rdf:about="">
        <dc:format>image/svg+xml</dc:format>
        <dc:type
           rdf:resource="http://purl.org/dc/dcmitype/StillImage" />
        <dc:title></dc:title>
      </cc:Work>
    </rdf:RDF>
  </metadata>
  <g
     inkscape:label="Layer 1"
     inkscape:groupmode="layer"
     id="layer1"
     transform="translate(0,-952.36216)" />
  <g
     inkscape:groupmode="layer"
     id="layer2"
     inkscape:label="text">
    <text
       xml:space="preserve"
       style="font-style:normal;font-variant:normal;font-weight:900;font-stretch:normal;font-size:58.52290726px;line-height:125%;font-family:'Segoe UI';-inkscape-font-specification:'Segoe UI, Heavy';text-align:start;letter-spacing:0px;word-spacing:0px;writing-mode:lr-tb;text-anchor:start;fill:#000000;fill-opacity:1;stroke:url(#pattern4932);stroke-width:2.43845439;stroke-linecap:butt;stroke-linejoin:miter;stroke-miterlimit:4;stroke-dasharray:none;stroke-opacity:1"
       x="50.333885"
       y="69.64991"
       id="text4923"
       sodipodi:linespacing="125%"
       transform="scale(0.97405391,1.0266372)"><tspan
         sodipodi:role="line"
         id="tspan4925"
         x="50.333885"
         y="69.64991"
         style="stroke:url(#pattern4932);stroke-width:2.43845439;stroke-miterlimit:4;stroke-dasharray:none">Nathan</tspan></text>
  </g>
</svg>
